<?xml version="1.0" encoding="UTF-8"?>
<!DOCTYPE svg PUBLIC "-//W3C//DTD SVG 1.1//EN" "http://www.w3.org/Graphics/SVG/1.1/DTD/svg11.dtd">
<svg xmlns="http://www.w3.org/2000/svg" version="1.1" width="256px" height="256px" style="shape-rendering:geometricPrecision; text-rendering:geometricPrecision; image-rendering:optimizeQuality; fill-rule:evenodd; clip-rule:evenodd" xmlns:xlink="http://www.w3.org/1999/xlink">
<g><path style="opacity:0.851" fill="#7b7974" d="M 112.5,-0.5 C 113.833,-0.5 115.167,-0.5 116.5,-0.5C 117.11,0.391047 117.443,1.39105 117.5,2.5C 115.887,1.30766 114.22,0.307663 112.5,-0.5 Z"/></g>
<g><path style="opacity:0.999" fill="#d53a32" d="M 111.5,-0.5 C 111.833,-0.5 112.167,-0.5 112.5,-0.5C 114.22,0.307663 115.887,1.30766 117.5,2.5C 117.738,4.40435 118.738,5.73769 120.5,6.5C 121.412,8.5952 122.579,10.5952 124,12.5C 124.671,13.2524 125.504,13.5858 126.5,13.5C 129.156,16.7941 131.822,20.1274 134.5,23.5C 133.475,23.8966 133.308,24.5632 134,25.5C 137.865,29.249 140.698,33.5823 142.5,38.5C 142.737,39.791 142.404,40.791 141.5,41.5C 139.787,44.7255 137.454,47.5588 134.5,50C 134.728,50.3988 135.062,50.5654 135.5,50.5C 135.068,51.7095 134.401,52.7095 133.5,53.5C 133.565,53.0618 133.399,52.7284 133,52.5C 130.218,54.7705 128.051,57.4372 126.5,60.5C 125.557,63.1092 123.89,65.1092 121.5,66.5C 118.5,67.5 116.5,69.5 115.5,72.5C 115.158,73.3382 114.492,73.6716 113.5,73.5C 112.038,72.5291 110.705,72.8624 109.5,74.5C 108.5,74.5 107.5,74.5 106.5,74.5C 105.947,72.4482 104.947,72.1148 103.5,73.5C 100.766,71.381 97.9331,69.381 95,67.5C 91.6501,68.9749 88.1501,69.6416 84.5,69.5C 83.9569,69.56 83.6236,69.8933 83.5,70.5C 84.1037,74.3027 84.7704,77.9694 85.5,81.5C 86.8123,98.8096 87.8123,116.143 88.5,133.5C 87.596,134.209 87.2627,135.209 87.5,136.5C 89.3797,136.771 90.713,136.104 91.5,134.5C 93.0269,134.573 94.0269,133.906 94.5,132.5C 109.32,125.701 124.653,124.701 140.5,129.5C 140.821,131.048 141.821,131.715 143.5,131.5C 144.959,131.433 146.292,131.766 147.5,132.5C 147.821,134.048 148.821,134.715 150.5,134.5C 152.062,134.733 153.395,135.4 154.5,136.5C 155.5,139.167 156.5,139.167 157.5,136.5C 159.188,132.812 161.855,130.145 165.5,128.5C 167.749,127.92 169.415,126.587 170.5,124.5C 171.262,122.738 172.596,121.738 174.5,121.5C 174.435,121.938 174.601,122.272 175,122.5C 176.518,121.837 177.685,120.837 178.5,119.5C 178.842,118.662 179.508,118.328 180.5,118.5C 182.38,118.771 183.713,118.104 184.5,116.5C 184.842,115.662 185.508,115.328 186.5,115.5C 186.56,116.043 186.893,116.376 187.5,116.5C 189.026,116.006 190.359,115.339 191.5,114.5C 197.437,112.841 203.437,112.507 209.5,113.5C 213.615,114.943 217.948,115.943 222.5,116.5C 224.216,116.629 225.883,116.962 227.5,117.5C 230.771,120.812 234.771,123.145 239.5,124.5C 241.434,125.11 243.101,126.11 244.5,127.5C 246.71,132.031 245.377,134.698 240.5,135.5C 239.198,133.178 237.198,131.845 234.5,131.5C 233,129.821 231.167,128.488 229,127.5C 228.601,127.728 228.435,128.062 228.5,128.5C 228.167,128.5 227.833,128.5 227.5,128.5C 227.631,127.624 227.298,126.957 226.5,126.5C 225.571,125.45 224.905,125.45 224.5,126.5C 222.079,126.122 219.746,125.455 217.5,124.5C 216.462,122.481 215.128,122.147 213.5,123.5C 213.167,123.5 212.833,123.5 212.5,123.5C 211.462,121.481 210.128,121.147 208.5,122.5C 206.167,122.5 203.833,122.5 201.5,122.5C 200.726,121.853 199.726,121.52 198.5,121.5C 196.645,121.34 195.312,122.007 194.5,123.5C 193.5,123.5 192.5,123.5 191.5,123.5C 188.351,123.415 185.684,124.415 183.5,126.5C 180.151,127.169 177.484,128.836 175.5,131.5C 175.167,132.5 174.5,133.167 173.5,133.5C 171.973,133.427 170.973,134.094 170.5,135.5C 168.804,137.525 167.137,139.525 165.5,141.5C 165.565,141.062 165.399,140.728 165,140.5C 163.764,141.399 162.93,142.566 162.5,144C 164.154,146.826 166.154,149.326 168.5,151.5C 172.78,155.935 174.613,161.268 174,167.5C 171.763,171.02 169.096,171.353 166,168.5C 164.991,166.975 164.491,165.308 164.5,163.5C 164.519,159.839 163.019,156.505 160,153.5C 159.601,153.728 159.435,154.062 159.5,154.5C 158.662,154.158 158.328,153.492 158.5,152.5C 158.938,152.565 159.272,152.399 159.5,152C 158.529,150.519 157.196,149.685 155.5,149.5C 154.833,149.5 154.5,149.167 154.5,148.5C 154.938,148.565 155.272,148.399 155.5,148C 153.066,145.122 150.066,143.288 146.5,142.5C 144.847,142.34 143.514,141.674 142.5,140.5C 141.713,138.896 140.38,138.229 138.5,138.5C 131.938,136.851 125.271,135.851 118.5,135.5C 115.756,134.509 113.089,134.843 110.5,136.5C 110.167,136.5 109.833,136.5 109.5,136.5C 107.517,136.157 106.183,136.824 105.5,138.5C 98.4365,140.591 92.4365,144.257 87.5,149.5C 86.5195,151.396 85.5195,153.396 84.5,155.5C 84.6236,156.107 84.9569,156.44 85.5,156.5C 85.0679,157.71 84.4013,158.71 83.5,159.5C 81.7376,160.262 80.7376,161.596 80.5,163.5C 78.597,163.796 76.9303,164.463 75.5,165.5C 72.2244,164.878 70.8911,162.878 71.5,159.5C 72.8333,159.5 73.5,158.833 73.5,157.5C 75.5,157.5 76.5,156.5 76.5,154.5C 78.5848,152.316 79.5848,149.649 79.5,146.5C 79.5,142.833 79.5,139.167 79.5,135.5C 80.7097,132.07 80.3764,128.737 78.5,125.5C 78.5,124.5 78.5,123.5 78.5,122.5C 79.8913,117.738 79.558,113.072 77.5,108.5C 77.5,107.5 77.5,106.5 77.5,105.5C 78.8913,100.738 78.558,96.0718 76.5,91.5C 76.5,90.5 76.5,89.5 76.5,88.5C 77.8913,83.7385 77.558,79.0718 75.5,74.5C 74.5,72.5 73.5,70.5 72.5,68.5C 71.1667,66.5 71.1667,64.5 72.5,62.5C 74.403,62.2041 76.0697,61.5375 77.5,60.5C 80.9387,60.7471 84.272,60.4137 87.5,59.5C 88.2506,60.5735 89.2506,60.7401 90.5,60C 92.0632,58.264 93.7299,56.764 95.5,55.5C 97.3797,55.2291 98.713,55.8958 99.5,57.5C 100.5,60.5 102.5,62.5 105.5,63.5C 106.167,63.5 106.5,63.8333 106.5,64.5C 107.946,65.6129 109.613,65.7796 111.5,65C 113.833,62.6667 116.167,60.3333 118.5,58C 118.272,57.6012 117.938,57.4346 117.5,57.5C 118.604,55.6115 119.937,53.9448 121.5,52.5C 124.5,51.5 126.5,49.5 127.5,46.5C 127.738,44.5956 128.738,43.2623 130.5,42.5C 131.496,42.5858 132.329,42.2524 133,41.5C 133.78,39.6131 133.613,37.9464 132.5,36.5C 132.573,34.9731 131.906,33.9731 130.5,33.5C 128.457,32.4206 127.124,30.754 126.5,28.5C 125.864,26.2054 124.531,24.5387 122.5,23.5C 121.026,22.5637 120.026,21.2303 119.5,19.5C 119.573,17.9731 118.906,16.9731 117.5,16.5C 116.833,16.5 116.5,16.1667 116.5,15.5C 116.938,15.5654 117.272,15.3988 117.5,15C 115.917,13.2417 114.25,11.7417 112.5,10.5C 111.74,8.01548 110.74,8.01548 109.5,10.5C 109.167,10.5 108.833,10.5 108.5,10.5C 105.911,10.461 103.911,11.461 102.5,13.5C 102.5,14.1667 102.167,14.5 101.5,14.5C 99.3159,13.8919 97.3159,14.5586 95.5,16.5C 92.2459,16.7936 89.5792,18.127 87.5,20.5C 86.791,21.404 85.791,21.7373 84.5,21.5C 82.8212,21.2852 81.8212,21.9519 81.5,23.5C 81.1667,23.5 80.8333,23.5 80.5,23.5C 77.7594,23.7073 75.4261,24.7073 73.5,26.5C 72.4863,27.6737 71.153,28.3404 69.5,28.5C 66.7594,28.7073 64.4261,29.7073 62.5,31.5C 58.1093,32.3545 54.776,34.0212 52.5,36.5C 51.791,37.404 50.791,37.7373 49.5,37.5C 45.6837,38.0897 44.0171,40.4231 44.5,44.5C 42.7234,47.5046 41.7234,50.8379 41.5,54.5C 41.5905,57.1522 40.9238,59.4855 39.5,61.5C 37.7424,64.8544 36.7424,68.521 36.5,72.5C 35.815,77.2394 34.815,81.9061 33.5,86.5C 30.4964,90.8425 28.8297,95.8425 28.5,101.5C 27.5773,107.267 26.2439,112.934 24.5,118.5C 22.446,121.008 21.446,124.008 21.5,127.5C 21.1016,131.761 20.1016,135.761 18.5,139.5C 17.661,140.641 16.9943,141.974 16.5,143.5C 16.6236,144.107 16.9569,144.44 17.5,144.5C 14.9643,154.979 12.2977,165.313 9.5,175.5C 7.95857,177.769 7.2919,180.936 7.5,185C 7.50393,187.361 7.83726,189.527 8.5,191.5C 8.5,192.167 8.5,192.833 8.5,193.5C 10.4261,195.293 12.7594,196.293 15.5,196.5C 16.7804,197.931 18.4471,198.598 20.5,198.5C 23.5113,199.669 26.178,201.336 28.5,203.5C 28.4142,204.496 28.7476,205.329 29.5,206C 30.9308,206.465 32.0975,207.299 33,208.5C 33.3988,208.272 33.5654,207.938 33.5,207.5C 34.1667,207.5 34.5,207.833 34.5,208.5C 35.2623,210.262 36.5956,211.262 38.5,211.5C 38.9731,212.906 39.9731,213.573 41.5,213.5C 45.1916,215.344 48.5249,217.677 51.5,220.5C 54.0663,223.605 57.0663,225.272 60.5,225.5C 61.4916,225.328 62.1583,225.662 62.5,226.5C 63.2998,228.741 64.9664,229.741 67.5,229.5C 69.8185,229.992 71.8185,230.992 73.5,232.5C 74.7046,234.138 76.0379,234.471 77.5,233.5C 103.171,241.645 129.171,242.645 155.5,236.5C 156.097,237.139 156.93,237.472 158,237.5C 159.699,237.613 160.866,236.947 161.5,235.5C 165.167,234.833 168.833,234.167 172.5,233.5C 175.33,234.735 178.33,235.735 181.5,236.5C 182.492,236.328 183.158,236.662 183.5,237.5C 184.78,238.931 186.447,239.598 188.5,239.5C 190.102,241.074 192.102,241.741 194.5,241.5C 198.197,242.008 201.864,242.674 205.5,243.5C 206.918,245.308 208.918,245.975 211.5,245.5C 213.167,245.5 214.833,245.5 216.5,245.5C 220.044,247.569 223.71,247.902 227.5,246.5C 232.547,246.663 237.547,246.329 242.5,245.5C 244.23,247.231 245.563,249.231 246.5,251.5C 246.229,253.43 245.229,254.764 243.5,255.5C 233.5,255.5 223.5,255.5 213.5,255.5C 207.076,254.215 200.743,252.548 194.5,250.5C 192.35,249.33 190.016,248.33 187.5,247.5C 186.893,247.624 186.56,247.957 186.5,248.5C 185.833,248.5 185.5,248.167 185.5,247.5C 184.295,245.862 182.962,245.529 181.5,246.5C 179.181,246.008 177.181,245.008 175.5,243.5C 175.938,243.565 176.272,243.399 176.5,243C 173.733,241.525 171.067,241.691 168.5,243.5C 144.926,249.28 120.926,250.947 96.5,248.5C 96.3893,247.883 96.056,247.383 95.5,247C 93.5273,246.505 91.5273,246.338 89.5,246.5C 82.7074,245.679 76.3741,243.679 70.5,240.5C 68.4809,239.067 66.3143,237.733 64,236.5C 63.6012,236.728 63.4346,237.062 63.5,237.5C 63.1667,237.5 62.8333,237.5 62.5,237.5C 61.9653,235.554 60.632,234.554 58.5,234.5C 56.6644,232.412 54.3311,231.079 51.5,230.5C 51.1667,230.5 50.8333,230.5 50.5,230.5C 48.0117,227.561 45.0117,225.061 41.5,223C 40.5632,222.308 39.8966,222.475 39.5,223.5C 37.6115,222.396 35.9448,221.063 34.5,219.5C 33.4613,217.469 31.7946,216.136 29.5,215.5C 27.5956,215.262 26.2623,214.262 25.5,212.5C 22.8562,210.031 20.0228,207.698 17,205.5C 16.6012,205.728 16.4346,206.062 16.5,206.5C 16.1667,206.5 15.8333,206.5 15.5,206.5C 15.1788,204.952 14.1788,204.285 12.5,204.5C 7.2171,203.856 2.88377,201.523 -0.5,197.5C -0.5,190.167 -0.5,182.833 -0.5,175.5C 1.12297,171.022 2.4563,166.356 3.5,161.5C 5.74377,157.207 7.0771,152.54 7.5,147.5C 7.23219,145.901 7.56552,144.568 8.5,143.5C 9.71798,141.172 10.718,138.672 11.5,136C 11.2716,135.601 10.9382,135.435 10.5,135.5C 10.5,135.167 10.5,134.833 10.5,134.5C 12.4611,132.68 12.7944,130.68 11.5,128.5C 12.5115,125.748 13.5115,123.081 14.5,120.5C 15.8158,119.052 16.4825,116.719 16.5,113.5C 17.2485,112.469 17.9152,111.302 18.5,110C 18.2716,109.601 17.9382,109.435 17.5,109.5C 17.5,109.167 17.5,108.833 17.5,108.5C 19.0739,106.898 19.7406,104.898 19.5,102.5C 20.0756,97.1906 21.409,92.1906 23.5,87.5C 24.5783,85.4606 25.5783,83.294 26.5,81C 26.2716,80.6012 25.9382,80.4346 25.5,80.5C 25.4095,77.8478 26.0762,75.5145 27.5,73.5C 28.339,72.3588 29.0057,71.0255 29.5,69.5C 29.3764,68.8933 29.0431,68.56 28.5,68.5C 28.5,68.1667 28.5,67.8333 28.5,67.5C 30.2132,66.3646 30.8799,64.698 30.5,62.5C 30.7556,59.4021 31.4222,56.4021 32.5,53.5C 34.3818,52.779 34.7152,51.779 33.5,50.5C 33.5,50.1667 33.5,49.8333 33.5,49.5C 34.5862,49.38 35.2528,48.7133 35.5,47.5C 36.154,46.1847 36.154,45.1847 35.5,44.5C 35.5,44.1667 35.5,43.8333 35.5,43.5C 37.1625,41.7756 38.1625,39.6089 38.5,37C 38.4301,36.2352 38.0967,35.7352 37.5,35.5C 40.0052,31.4102 43.6719,29.0769 48.5,28.5C 51.5858,28.3098 53.5858,27.3098 54.5,25.5C 56.649,24.2638 58.9823,23.2638 61.5,22.5C 61.4346,22.9382 61.6012,23.2716 62,23.5C 64.9788,21.933 67.8121,20.2663 70.5,18.5C 70.8417,17.6618 71.5084,17.3284 72.5,17.5C 72.4346,17.9382 72.6012,18.2716 73,18.5C 74.5185,17.8366 75.6851,16.8366 76.5,15.5C 78.5529,15.5979 80.2196,14.9313 81.5,13.5C 84.089,13.539 86.089,12.539 87.5,10.5C 90.2558,8.79624 93.2558,7.46291 96.5,6.5C 99.089,6.53905 101.089,5.53905 102.5,3.5C 104.05,2.5592 105.716,1.89254 107.5,1.5C 107.435,1.93822 107.601,2.27155 108,2.5C 109.518,1.83663 110.685,0.836628 111.5,-0.5 Z"/></g>
<g><path style="opacity:0.984" fill="#65adac" d="M 109.5,-0.5 C 110.167,-0.5 110.833,-0.5 111.5,-0.5C 110.685,0.836628 109.518,1.83663 108,2.5C 107.601,2.27155 107.435,1.93822 107.5,1.5C 108.167,0.833333 108.833,0.166667 109.5,-0.5 Z"/></g>
<g><path style="opacity:0.847" fill="#6d6d6c" d="M 117.5,2.5 C 119.262,3.26231 120.262,4.59565 120.5,6.5C 118.738,5.73769 117.738,4.40435 117.5,2.5 Z"/></g>
<g><path style="opacity:0.937" fill="#a3b3b2" d="M 102.5,3.5 C 101.089,5.53905 99.089,6.53905 96.5,6.5C 98.1815,4.99249 100.181,3.99249 102.5,3.5 Z"/></g>
<g><path style="opacity:0.016" fill="#cad6d5" d="M 112.5,10.5 C 111.5,10.5 110.5,10.5 109.5,10.5C 110.74,8.01548 111.74,8.01548 112.5,10.5 Z"/></g>
<g><path style="opacity:0.733" fill="#8b7166" d="M 108.5,10.5 C 106.819,12.0075 104.819,13.0075 102.5,13.5C 103.911,11.461 105.911,10.461 108.5,10.5 Z"/></g>
<g><path style="opacity:0.988" fill="#b7ac9f" d="M 112.5,10.5 C 114.25,11.7417 115.917,13.2417 117.5,15C 117.272,15.3988 116.938,15.5654 116.5,15.5C 114.457,14.4206 113.124,12.754 112.5,10.5 Z"/></g>
<g><path style="opacity:0.992" fill="#89847f" d="M 120.5,6.5 C 123.2,8.23438 125.2,10.5677 126.5,13.5C 125.504,13.5858 124.671,13.2524 124,12.5C 122.579,10.5952 121.412,8.5952 120.5,6.5 Z"/></g>
<g><path style="opacity:0.988" fill="#98aaa9" d="M 87.5,10.5 C 86.089,12.539 84.089,13.539 81.5,13.5C 83.1815,11.9925 85.1815,10.9925 87.5,10.5 Z"/></g>
<g><path style="opacity:0.843" fill="#a0a296" d="M 81.5,13.5 C 80.2196,14.9313 78.5529,15.5979 76.5,15.5C 77.7804,14.0687 79.4471,13.4021 81.5,13.5 Z"/></g>
<g><path style="opacity:0.02" fill="#ae8d7f" d="M 101.5,14.5 C 99.7028,15.7298 97.7028,16.3964 95.5,16.5C 97.3159,14.5586 99.3159,13.8919 101.5,14.5 Z"/></g>
<g><path style="opacity:0.961" fill="#81b1b0" d="M 76.5,15.5 C 75.6851,16.8366 74.5185,17.8366 73,18.5C 72.6012,18.2716 72.4346,17.9382 72.5,17.5C 73.5137,16.3263 74.847,15.6596 76.5,15.5 Z"/></g>
<g><path style="opacity:0.824" fill="#738281" d="M 186.5,16.5 C 183.64,17.2439 180.64,17.9106 177.5,18.5C 176.893,18.3764 176.56,18.0431 176.5,17.5C 179.728,16.5863 183.061,16.2529 186.5,16.5 Z"/></g>
<g><path style="opacity:1" fill="#d43a31" d="M 186.5,16.5 C 190.044,16.1324 193.044,17.1324 195.5,19.5C 196.262,21.2624 197.596,22.2624 199.5,22.5C 200.15,22.8039 200.817,23.1373 201.5,23.5C 203.186,22.1431 204.852,20.8098 206.5,19.5C 208.51,20.3491 210.177,19.6824 211.5,17.5C 216.267,16.2027 220.934,16.2027 225.5,17.5C 227.181,19.0075 229.181,20.0075 231.5,20.5C 232.492,20.3284 233.158,20.6618 233.5,21.5C 233.738,23.4044 234.738,24.7377 236.5,25.5C 237.167,25.5 237.5,25.8333 237.5,26.5C 237.062,26.4346 236.728,26.6012 236.5,27C 237.488,29.167 238.821,31.0003 240.5,32.5C 240.5,33.5 240.5,34.5 240.5,35.5C 240.014,38.3817 240.014,41.0483 240.5,43.5C 240.672,44.4916 240.338,45.1583 239.5,45.5C 237.836,48.1586 236.17,50.8252 234.5,53.5C 224.135,64.8659 213.135,75.5325 201.5,85.5C 188.49,72.4897 175.823,59.1564 163.5,45.5C 162.393,40.9185 162.227,36.2519 163,31.5C 163.608,29.9336 164.442,28.6002 165.5,27.5C 167.262,26.7377 168.262,25.4044 168.5,23.5C 168.833,22.5 169.5,21.8333 170.5,21.5C 172.027,21.573 173.027,20.9063 173.5,19.5C 173.973,18.0937 174.973,17.427 176.5,17.5C 176.56,18.0431 176.893,18.3764 177.5,18.5C 180.64,17.9106 183.64,17.2439 186.5,16.5 Z M 191.5,27.5 C 191.833,28.5 192.5,29.1667 193.5,29.5C 196.011,34.2641 199.677,35.9307 204.5,34.5C 207.901,31.0917 211.568,28.0917 215.5,25.5C 216.833,25.5 218.167,25.5 219.5,25.5C 221.833,26.1667 224.167,26.8333 226.5,27.5C 231.235,31.9643 232.568,37.2977 230.5,43.5C 229.4,44.6049 228.733,45.9382 228.5,47.5C 219.535,55.9644 210.702,64.631 202,73.5C 193.965,65.2976 185.798,57.2976 177.5,49.5C 176.833,48.1667 175.833,47.1667 174.5,46.5C 173.012,43.8707 172.012,41.0374 171.5,38C 171.976,34.387 173.309,31.2204 175.5,28.5C 177.027,28.573 178.027,27.9063 178.5,26.5C 182.991,24.9718 187.324,25.3052 191.5,27.5 Z"/></g>
<g><path style="opacity:0.412" fill="#7c8988" d="M 225.5,17.5 C 228.089,17.461 230.089,18.461 231.5,20.5C 229.181,20.0075 227.181,19.0075 225.5,17.5 Z"/></g>
<g><path style="opacity:0.145" fill="#699291" d="M 117.5,16.5 C 118.906,16.9731 119.573,17.9731 119.5,19.5C 118.094,19.0269 117.427,18.0269 117.5,16.5 Z"/></g>
<g><path style="opacity:0.031" fill="#b9c3c1" d="M 95.5,16.5 C 93.1515,18.341 90.4848,19.6743 87.5,20.5C 89.5792,18.127 92.2459,16.7936 95.5,16.5 Z"/></g>
<g><path style="opacity:0.937" fill="#76a5a4" d="M 211.5,17.5 C 210.177,19.6824 208.51,20.3491 206.5,19.5C 208.05,18.5592 209.716,17.8925 211.5,17.5 Z"/></g>
<g><path style="opacity:0.894" fill="#809993" d="M 70.5,18.5 C 67.8121,20.2663 64.9788,21.933 62,23.5C 61.6012,23.2716 61.4346,22.9382 61.5,22.5C 64.0878,20.3754 67.0878,19.0421 70.5,18.5 Z"/></g>
<g><path style="opacity:0.941" fill="#7d9e9d" d="M 173.5,19.5 C 173.027,20.9063 172.027,21.573 170.5,21.5C 170.973,20.0937 171.973,19.427 173.5,19.5 Z"/></g>
<g><path style="opacity:0.235" fill="#9eb6b5" d="M 195.5,19.5 C 197.404,19.7376 198.738,20.7376 199.5,22.5C 197.596,22.2624 196.262,21.2624 195.5,19.5 Z"/></g>
<g><path style="opacity:0.149" fill="#656461" d="M 84.5,21.5 C 83.7095,22.4013 82.7095,23.0679 81.5,23.5C 81.8212,21.9519 82.8212,21.2852 84.5,21.5 Z"/></g>
<g><path style="opacity:0.988" fill="#918e81" d="M 122.5,23.5 C 124.531,24.5387 125.864,26.2054 126.5,28.5C 124.457,27.4206 123.124,25.754 122.5,23.5 Z"/></g>
<g><path style="opacity:0.043" fill="#6e8c8b" d="M 233.5,21.5 C 235.262,22.2623 236.262,23.5956 236.5,25.5C 234.738,24.7377 233.738,23.4044 233.5,21.5 Z"/></g>
<g><path style="opacity:0.035" fill="#af948f" d="M 80.5,23.5 C 78.5739,25.2927 76.2406,26.2927 73.5,26.5C 75.4261,24.7073 77.7594,23.7073 80.5,23.5 Z"/></g>
<g><path style="opacity:0.965" fill="#8ea7a1" d="M 219.5,25.5 C 219.735,24.9033 220.235,24.5699 221,24.5C 223.296,24.8588 225.129,25.8588 226.5,27.5C 224.167,26.8333 221.833,26.1667 219.5,25.5 Z"/></g>
<g><path style="opacity:0.69" fill="#afafac" d="M 168.5,23.5 C 168.262,25.4044 167.262,26.7377 165.5,27.5C 165.738,25.5956 166.738,24.2623 168.5,23.5 Z"/></g>
<g><path style="opacity:0.969" fill="#a39c9a" d="M 54.5,25.5 C 53.5858,27.3098 51.5858,28.3098 48.5,28.5C 50.1815,26.9925 52.1815,25.9925 54.5,25.5 Z"/></g>
<g><path style="opacity:0.027" fill="#8da09f" d="M 178.5,26.5 C 178.027,27.9063 177.027,28.573 175.5,28.5C 175.973,27.0937 176.973,26.427 178.5,26.5 Z"/></g>
<g><path style="opacity:0.996" fill="#9b8784" d="M 134.5,23.5 C 138.884,27.5592 141.551,32.5592 142.5,38.5C 140.698,33.5823 137.865,29.249 134,25.5C 133.308,24.5632 133.475,23.8966 134.5,23.5 Z"/></g>
<g><path style="opacity:0.016" fill="#b1c7c5" d="M 193.5,29.5 C 192.5,29.1667 191.833,28.5 191.5,27.5C 191.435,27.0618 191.601,26.7284 192,26.5C 193.039,27.2438 193.539,28.2438 193.5,29.5 Z"/></g>
<g><path style="opacity:0.11" fill="#998078" d="M 237.5,26.5 C 239.008,28.1815 240.008,30.1815 240.5,32.5C 238.821,31.0003 237.488,29.167 236.5,27C 236.728,26.6012 237.062,26.4346 237.5,26.5 Z"/></g>
<g><path style="opacity:0.435" fill="#86877f" d="M 69.5,28.5 C 67.5739,30.2927 65.2406,31.2927 62.5,31.5C 64.4261,29.7073 66.7594,28.7073 69.5,28.5 Z"/></g>
<g><path style="opacity:0.102" fill="#8d8180" d="M 215.5,25.5 C 211.568,28.0917 207.901,31.0917 204.5,34.5C 206.671,29.662 210.337,26.662 215.5,25.5 Z"/></g>
<g><path style="opacity:0.051" fill="#877a78" d="M 62.5,31.5 C 59.4846,33.6744 56.1513,35.3411 52.5,36.5C 54.776,34.0212 58.1093,32.3545 62.5,31.5 Z"/></g>
<g><path style="opacity:0.024" fill="#8ca7a6" d="M 130.5,33.5 C 131.906,33.9731 132.573,34.9731 132.5,36.5C 131.094,36.0269 130.427,35.0269 130.5,33.5 Z"/></g>
<g><path style="opacity:0.196" fill="#669a9a" d="M 132.5,36.5 C 133.613,37.9464 133.78,39.6131 133,41.5C 132.329,42.2524 131.496,42.5858 130.5,42.5C 132.081,40.8583 132.747,38.8583 132.5,36.5 Z"/></g>
<g><path style="opacity:0.11" fill="#aca7a3" d="M 240.5,35.5 C 241.657,38.0259 241.657,40.6926 240.5,43.5C 240.014,41.0483 240.014,38.3817 240.5,35.5 Z"/></g>
<g><path style="opacity:0.992" fill="#8d847e" d="M 37.5,35.5 C 38.0967,35.7352 38.4301,36.2352 38.5,37C 38.1625,39.6089 37.1625,41.7756 35.5,43.5C 36.1667,40.8333 36.8333,38.1667 37.5,35.5 Z"/></g>
<g><path style="opacity:0.694" fill="#898e8c" d="M 49.5,37.5 C 47.0983,39.3016 45.4316,41.6349 44.5,44.5C 44.0171,40.4231 45.6837,38.0897 49.5,37.5 Z"/></g>
<g><path style="opacity:0.49" fill="#84b6b3" d="M 141.5,41.5 C 141.103,45.5647 139.103,48.5647 135.5,50.5C 135.062,50.5654 134.728,50.3988 134.5,50C 137.454,47.5588 139.787,44.7255 141.5,41.5 Z"/></g>
<g><path style="opacity:0.235" fill="#adb1af" d="M 35.5,44.5 C 36.154,45.1847 36.154,46.1847 35.5,47.5C 35.2528,48.7133 34.5862,49.38 33.5,49.5C 34.0241,47.6943 34.6908,46.0276 35.5,44.5 Z"/></g>
<g><path style="opacity:0.784" fill="#89bebc" d="M 230.5,43.5 C 231.473,45.2916 230.806,46.625 228.5,47.5C 228.733,45.9382 229.4,44.6049 230.5,43.5 Z"/></g>
<g><path style="opacity:0.788" fill="#9ba597" d="M 174.5,46.5 C 175.833,47.1667 176.833,48.1667 177.5,49.5C 177.565,49.9382 177.399,50.2716 177,50.5C 175.519,49.5291 174.685,48.1958 174.5,46.5 Z"/></g>
<g><path style="opacity:0.039" fill="#9d7670" d="M 44.5,44.5 C 44.2766,48.1621 43.2766,51.4954 41.5,54.5C 41.7234,50.8379 42.7234,47.5046 44.5,44.5 Z"/></g>
<g><path style="opacity:0.878" fill="#86706b" d="M 127.5,46.5 C 126.5,49.5 124.5,51.5 121.5,52.5C 123.167,50.1667 125.167,48.1667 127.5,46.5 Z"/></g>
<g><path style="opacity:0.149" fill="#968c84" d="M 239.5,45.5 C 239.348,49.1407 237.682,51.8073 234.5,53.5C 236.17,50.8252 237.836,48.1586 239.5,45.5 Z"/></g>
<g><path style="opacity:0.941" fill="#bcbfbe" d="M 33.5,50.5 C 34.7152,51.779 34.3818,52.779 32.5,53.5C 32.5569,52.391 32.8902,51.391 33.5,50.5 Z"/></g>
<g><path style="opacity:0.047" fill="#77b0af" d="M 133.5,53.5 C 131.5,56.1667 129.167,58.5 126.5,60.5C 128.051,57.4372 130.218,54.7705 133,52.5C 133.399,52.7284 133.565,53.0618 133.5,53.5 Z"/></g>
<g><path style="opacity:0.231" fill="#453f3a" d="M 163.5,45.5 C 175.823,59.1564 188.49,72.4897 201.5,85.5C 189.232,74.7349 177.399,63.4016 166,51.5C 164.878,49.5932 164.045,47.5932 163.5,45.5 Z"/></g>
<g><path style="opacity:0.69" fill="#af9183" d="M 95.5,55.5 C 93.7299,56.764 92.0632,58.264 90.5,60C 89.2506,60.7401 88.2506,60.5735 87.5,59.5C 89.9483,57.7155 92.615,56.3822 95.5,55.5 Z"/></g>
<g><path style="opacity:0.149" fill="#647c7b" d="M 77.5,60.5 C 76.0697,61.5375 74.403,62.2041 72.5,62.5C 73.6354,60.7868 75.302,60.1201 77.5,60.5 Z"/></g>
<g><path style="opacity:0.992" fill="#8b6d68" d="M 99.5,57.5 C 101.833,59.1667 103.833,61.1667 105.5,63.5C 102.5,62.5 100.5,60.5 99.5,57.5 Z"/></g>
<g><path style="opacity:0.051" fill="#a0a7a2" d="M 39.5,61.5 C 39.2576,65.479 38.2576,69.1456 36.5,72.5C 36.7424,68.521 37.7424,64.8544 39.5,61.5 Z"/></g>
<g><path style="opacity:0.141" fill="#b9a493" d="M 72.5,62.5 C 71.1667,64.5 71.1667,66.5 72.5,68.5C 69.8333,66.5 69.8333,64.5 72.5,62.5 Z"/></g>
<g><path style="opacity:0.745" fill="#a8ada5" d="M 117.5,57.5 C 117.938,57.4346 118.272,57.6012 118.5,58C 116.167,60.3333 113.833,62.6667 111.5,65C 109.613,65.7796 107.946,65.6129 106.5,64.5C 107.873,64.6567 109.207,64.49 110.5,64C 112.703,61.6278 115.037,59.4611 117.5,57.5 Z"/></g>
<g><path style="opacity:0.922" fill="#5c685d" d="M 30.5,62.5 C 30.8799,64.698 30.2132,66.3646 28.5,67.5C 28.7959,65.597 29.4625,63.9303 30.5,62.5 Z"/></g>
<g><path style="opacity:0.424" fill="#927774" d="M 121.5,66.5 C 119.833,68.8333 117.833,70.8333 115.5,72.5C 116.5,69.5 118.5,67.5 121.5,66.5 Z"/></g>
<g><path style="opacity:0.314" fill="#89bab8" d="M 28.5,68.5 C 29.0431,68.56 29.3764,68.8933 29.5,69.5C 29.0057,71.0255 28.339,72.3588 27.5,73.5C 27.366,71.7085 27.6993,70.0418 28.5,68.5 Z"/></g>
<g><path style="opacity:0.118" fill="#bbb8b6" d="M 84.5,69.5 C 85.4299,73.3998 85.7633,77.3998 85.5,81.5C 84.7704,77.9694 84.1037,74.3027 83.5,70.5C 83.6236,69.8933 83.9569,69.56 84.5,69.5 Z"/></g>
<g><path style="opacity:0.043" fill="#8a9b9a" d="M 103.5,73.5 C 104.947,72.1148 105.947,72.4482 106.5,74.5C 105.609,73.8902 104.609,73.5569 103.5,73.5 Z"/></g>
<g><path style="opacity:0.055" fill="#76b0b0" d="M 113.5,73.5 C 112.292,74.2341 110.959,74.5674 109.5,74.5C 110.705,72.8624 112.038,72.5291 113.5,73.5 Z"/></g>
<g><path style="opacity:0.816" fill="#718784" d="M 75.5,74.5 C 77.558,79.0718 77.8913,83.7385 76.5,88.5C 76.4599,83.8075 76.1266,79.1408 75.5,74.5 Z"/></g>
<g><path style="opacity:0.902" fill="#9a7067" d="M 25.5,80.5 C 25.9382,80.4346 26.2716,80.6012 26.5,81C 25.5783,83.294 24.5783,85.4606 23.5,87.5C 23.4095,84.8478 24.0762,82.5145 25.5,80.5 Z"/></g>
<g><path style="opacity:0.082" fill="#7d9f9b" d="M 33.5,86.5 C 32.0079,91.6431 30.3412,96.6431 28.5,101.5C 28.8297,95.8425 30.4964,90.8425 33.5,86.5 Z"/></g>
<g><path style="opacity:0.816" fill="#718a86" d="M 76.5,91.5 C 78.558,96.0718 78.8913,100.738 77.5,105.5C 77.4599,100.807 77.1266,96.1408 76.5,91.5 Z"/></g>
<g><path style="opacity:0.953" fill="#5c5d5a" d="M 19.5,102.5 C 19.7406,104.898 19.0739,106.898 17.5,108.5C 17.595,106.214 18.2616,104.214 19.5,102.5 Z"/></g>
<g><path style="opacity:0.616" fill="#6fb4b2" d="M 17.5,109.5 C 17.9382,109.435 18.2716,109.601 18.5,110C 17.9152,111.302 17.2485,112.469 16.5,113.5C 16.2322,111.901 16.5655,110.568 17.5,109.5 Z"/></g>
<g><path style="opacity:0.988" fill="#7d938d" d="M 77.5,108.5 C 79.558,113.072 79.8913,117.738 78.5,122.5C 78.4599,117.807 78.1266,113.141 77.5,108.5 Z"/></g>
<g><path style="opacity:0.314" fill="#a07e75" d="M 209.5,113.5 C 214.192,113.425 218.526,114.425 222.5,116.5C 217.948,115.943 213.615,114.943 209.5,113.5 Z"/></g>
<g><path style="opacity:0.882" fill="#bbc9bc" d="M 191.5,114.5 C 190.359,115.339 189.026,116.006 187.5,116.5C 186.893,116.376 186.56,116.043 186.5,115.5C 188.042,114.699 189.708,114.366 191.5,114.5 Z"/></g>
<g><path style="opacity:0.686" fill="#6ac5c5" d="M 184.5,116.5 C 183.713,118.104 182.38,118.771 180.5,118.5C 181.514,117.326 182.847,116.66 184.5,116.5 Z"/></g>
<g><path style="opacity:0.494" fill="#71aead" d="M 16.5,113.5 C 16.4825,116.719 15.8158,119.052 14.5,120.5C 14.4095,117.848 15.0762,115.515 16.5,113.5 Z"/></g>
<g><path style="opacity:0.988" fill="#94afae" d="M 178.5,119.5 C 177.685,120.837 176.518,121.837 175,122.5C 174.601,122.272 174.435,121.938 174.5,121.5C 175.514,120.326 176.847,119.66 178.5,119.5 Z"/></g>
<g><path style="opacity:0.835" fill="#a4b3ac" d="M 208.5,122.5 C 210.128,121.147 211.462,121.481 212.5,123.5C 211.167,123.167 209.833,122.833 208.5,122.5 Z"/></g>
<g><path style="opacity:0.051" fill="#766e6a" d="M 201.5,122.5 C 199.097,122.448 196.764,122.781 194.5,123.5C 195.312,122.007 196.645,121.34 198.5,121.5C 199.726,121.52 200.726,121.853 201.5,122.5 Z"/></g>
<g><path style="opacity:0.776" fill="#b78580" d="M 191.5,123.5 C 189.11,125.02 186.443,126.02 183.5,126.5C 185.684,124.415 188.351,123.415 191.5,123.5 Z"/></g>
<g><path style="opacity:0.043" fill="#8b9694" d="M 213.5,123.5 C 215.128,122.147 216.462,122.481 217.5,124.5C 216.167,124.167 214.833,123.833 213.5,123.5 Z"/></g>
<g><path style="opacity:0.322" fill="#8c9e9c" d="M 227.5,117.5 C 231.864,119.344 235.864,121.677 239.5,124.5C 234.771,123.145 230.771,120.812 227.5,117.5 Z"/></g>
<g><path style="opacity:0.82" fill="#47a3a2" d="M 170.5,124.5 C 169.415,126.587 167.749,127.92 165.5,128.5C 166.585,126.413 168.251,125.08 170.5,124.5 Z"/></g>
<g><path style="opacity:0.145" fill="#7a8a88" d="M 24.5,118.5 C 23.9459,121.746 22.9459,124.746 21.5,127.5C 21.446,124.008 22.446,121.008 24.5,118.5 Z"/></g>
<g><path style="opacity:0.024" fill="#63acac" d="M 227.5,128.5 C 226.29,128.068 225.29,127.401 224.5,126.5C 224.905,125.45 225.571,125.45 226.5,126.5C 227.298,126.957 227.631,127.624 227.5,128.5 Z"/></g>
<g><path style="opacity:0.894" fill="#779d9d" d="M 234.5,131.5 C 232.181,131.008 230.181,130.008 228.5,128.5C 228.435,128.062 228.601,127.728 229,127.5C 231.167,128.488 233,129.821 234.5,131.5 Z"/></g>
<g><path style="opacity:0.235" fill="#9aaaa8" d="M 183.5,126.5 C 181.178,128.664 178.511,130.331 175.5,131.5C 177.484,128.836 180.151,127.169 183.5,126.5 Z"/></g>
<g><path style="opacity:0.529" fill="#a39f9c" d="M 244.5,127.5 C 245.117,127.611 245.617,127.944 246,128.5C 247.72,134.254 245.887,136.587 240.5,135.5C 245.377,134.698 246.71,132.031 244.5,127.5 Z"/></g>
<g><path style="opacity:0.914" fill="#b2aeae" d="M 140.5,129.5 C 141.71,129.932 142.71,130.599 143.5,131.5C 141.821,131.715 140.821,131.048 140.5,129.5 Z"/></g>
<g><path style="opacity:0.957" fill="#76c1c1" d="M 11.5,128.5 C 12.7944,130.68 12.4611,132.68 10.5,134.5C 10.8333,132.5 11.1667,130.5 11.5,128.5 Z"/></g>
<g><path style="opacity:0.816" fill="#728d88" d="M 78.5,125.5 C 80.3764,128.737 80.7097,132.07 79.5,135.5C 79.1667,132.167 78.8333,128.833 78.5,125.5 Z"/></g>
<g><path style="opacity:0.545" fill="#8a8782" d="M 234.5,131.5 C 237.198,131.845 239.198,133.178 240.5,135.5C 238.147,134.66 236.147,133.326 234.5,131.5 Z"/></g>
<g><path style="opacity:0.816" fill="#8f9384" d="M 94.5,132.5 C 94.0269,133.906 93.0269,134.573 91.5,134.5C 91.9731,133.094 92.9731,132.427 94.5,132.5 Z"/></g>
<g><path style="opacity:0.027" fill="#8f9190" d="M 147.5,132.5 C 148.71,132.932 149.71,133.599 150.5,134.5C 148.821,134.715 147.821,134.048 147.5,132.5 Z"/></g>
<g><path style="opacity:0.824" fill="#789392" d="M 88.5,133.5 C 88.369,134.239 88.5357,134.906 89,135.5C 89.6708,134.748 90.5041,134.414 91.5,134.5C 90.713,136.104 89.3797,136.771 87.5,136.5C 87.2627,135.209 87.596,134.209 88.5,133.5 Z"/></g>
<g><path style="opacity:0.016" fill="#a6e6e5" d="M 173.5,133.5 C 173.027,134.906 172.027,135.573 170.5,135.5C 170.973,134.094 171.973,133.427 173.5,133.5 Z"/></g>
<g><path style="opacity:0.984" fill="#80b3b2" d="M 10.5,135.5 C 10.9382,135.435 11.2716,135.601 11.5,136C 10.718,138.672 9.71798,141.172 8.5,143.5C 8.56513,140.572 9.2318,137.905 10.5,135.5 Z"/></g>
<g><path style="opacity:0.455" fill="#8ec4c3" d="M 118.5,135.5 C 115.873,136.092 113.206,136.425 110.5,136.5C 113.089,134.843 115.756,134.509 118.5,135.5 Z"/></g>
<g><path style="opacity:0.631" fill="#708281" d="M 109.5,136.5 C 108.329,137.345 106.995,138.011 105.5,138.5C 106.183,136.824 107.517,136.157 109.5,136.5 Z"/></g>
<g><path style="opacity:0.937" fill="#9f9c9a" d="M 154.5,136.5 C 155.5,137.833 156.5,137.833 157.5,136.5C 156.5,139.167 155.5,139.167 154.5,136.5 Z"/></g>
<g><path style="opacity:0.055" fill="#476e6d" d="M 138.5,138.5 C 140.38,138.229 141.713,138.896 142.5,140.5C 140.847,140.34 139.514,139.674 138.5,138.5 Z"/></g>
<g><path style="opacity:0.447" fill="#76796e" d="M 18.5,139.5 C 18.634,141.292 18.3007,142.958 17.5,144.5C 16.9569,144.44 16.6236,144.107 16.5,143.5C 16.9943,141.974 17.661,140.641 18.5,139.5 Z"/></g>
<g><path style="opacity:0.988" fill="#7f7a79" d="M 146.5,142.5 C 150.066,143.288 153.066,145.122 155.5,148C 155.272,148.399 154.938,148.565 154.5,148.5C 151.795,146.488 149.128,144.488 146.5,142.5 Z"/></g>
<g><path style="opacity:0.878" fill="#928c86" d="M 165.5,141.5 C 165.047,142.458 164.381,143.292 163.5,144C 165.808,146.128 167.474,148.628 168.5,151.5C 166.154,149.326 164.154,146.826 162.5,144C 162.93,142.566 163.764,141.399 165,140.5C 165.399,140.728 165.565,141.062 165.5,141.5 Z"/></g>
<g><path style="opacity:0.914" fill="#bf8f83" d="M 7.5,147.5 C 7.0771,152.54 5.74377,157.207 3.5,161.5C 4.23266,156.555 5.56599,151.888 7.5,147.5 Z"/></g>
<g><path style="opacity:0.91" fill="#7fcfce" d="M 155.5,149.5 C 157.196,149.685 158.529,150.519 159.5,152C 159.272,152.399 158.938,152.565 158.5,152.5C 157.167,151.833 156.167,150.833 155.5,149.5 Z"/></g>
<g><path style="opacity:0.718" fill="#807c78" d="M 79.5,146.5 C 79.5848,149.649 78.5848,152.316 76.5,154.5C 76.9802,151.557 77.9802,148.89 79.5,146.5 Z"/></g>
<g><path style="opacity:0.498" fill="#b5887e" d="M 87.5,149.5 C 87.6061,152.079 86.9395,154.412 85.5,156.5C 84.9569,156.44 84.6236,156.107 84.5,155.5C 85.5195,153.396 86.5195,151.396 87.5,149.5 Z"/></g>
<g><path style="opacity:0.616" fill="#6a9e9a" d="M 76.5,154.5 C 76.5,156.5 75.5,157.5 73.5,157.5C 74.1667,156.167 75.1667,155.167 76.5,154.5 Z"/></g>
<g><path style="opacity:0.933" fill="#50b3b3" d="M 73.5,157.5 C 73.5,158.833 72.8333,159.5 71.5,159.5C 71.8333,158.5 72.5,157.833 73.5,157.5 Z"/></g>
<g><path style="opacity:0.035" fill="#7f7876" d="M 164.5,163.5 C 163.087,160.339 161.42,157.339 159.5,154.5C 159.435,154.062 159.601,153.728 160,153.5C 163.019,156.505 164.519,159.839 164.5,163.5 Z"/></g>
<g><path style="opacity:0.306" fill="#cfc0bd" d="M 83.5,159.5 C 83.2624,161.404 82.2624,162.738 80.5,163.5C 80.7376,161.596 81.7376,160.262 83.5,159.5 Z"/></g>
<g><path style="opacity:0.847" fill="#638484" d="M 80.5,163.5 C 79.3646,165.213 77.698,165.88 75.5,165.5C 76.9303,164.463 78.597,163.796 80.5,163.5 Z"/></g>
<g><path style="opacity:0.51" fill="#896362" d="M 9.5,175.5 C 8.72546,180.797 8.39212,186.13 8.5,191.5C 7.83726,189.527 7.50393,187.361 7.5,185C 7.2919,180.936 7.95857,177.769 9.5,175.5 Z"/></g>
<g><path style="opacity:0.165" fill="#778f8a" d="M 52.5,186.5 C 57.088,186.084 60.088,188.084 61.5,192.5C 59.0127,189.67 56.0127,187.67 52.5,186.5 Z"/></g>
<g><path style="opacity:1" fill="#d53c33" d="M 52.5,186.5 C 56.0127,187.67 59.0127,189.67 61.5,192.5C 65.4572,196.491 69.4572,200.491 73.5,204.5C 74.2418,206.35 75.2418,207.016 76.5,206.5C 78.0618,206.733 79.3951,207.4 80.5,208.5C 81.985,211.083 84.3183,212.416 87.5,212.5C 93.1277,214.377 98.7944,216.043 104.5,217.5C 106.487,218.343 108.654,219.01 111,219.5C 111.765,219.43 112.265,219.097 112.5,218.5C 121.885,218.493 131.219,217.827 140.5,216.5C 141.29,217.401 142.29,218.068 143.5,218.5C 143.822,220.722 143.155,222.556 141.5,224C 138.009,224.738 134.675,225.571 131.5,226.5C 126.36,227.488 121.026,227.821 115.5,227.5C 110.694,226.407 105.694,225.741 100.5,225.5C 99.5,225.5 98.5,225.5 97.5,225.5C 96.779,223.618 95.779,223.285 94.5,224.5C 92.597,224.204 90.9303,223.537 89.5,222.5C 88.2954,220.862 86.9621,220.529 85.5,221.5C 83.8333,220.833 82.1667,220.167 80.5,219.5C 79.9653,217.554 78.632,216.554 76.5,216.5C 74.0246,213.759 71.0246,211.759 67.5,210.5C 66.7377,208.738 65.4044,207.738 63.5,207.5C 63.3146,205.804 62.4813,204.471 61,203.5C 60.6012,203.728 60.4346,204.062 60.5,204.5C 59.5,204.167 58.8333,203.5 58.5,202.5C 57.909,200.181 56.2423,198.181 53.5,196.5C 53.631,195.761 53.4643,195.094 53,194.5C 52.31,193.262 51.81,193.262 51.5,194.5C 50.8476,193.551 50.5143,192.385 50.5,191C 50.3068,188.992 50.9735,187.492 52.5,186.5 Z"/></g>
<g><path style="opacity:0.995" fill="#d34438" d="M 218.5,191.5 C 218.987,192.473 219.487,193.473 220,194.5C 220.399,194.272 220.565,193.938 220.5,193.5C 221.488,194.795 222.488,196.128 223.5,197.5C 224.287,199.104 225.62,199.771 227.5,199.5C 229.965,199.767 232.299,200.434 234.5,201.5C 235.879,203.597 237.545,203.93 239.5,202.5C 239.833,202.5 240.167,202.5 240.5,202.5C 241.183,204.176 242.517,204.843 244.5,204.5C 246.441,206.011 246.941,208.011 246,210.5C 244.701,211.98 243.034,212.646 241,212.5C 233.997,211.774 227.497,209.774 221.5,206.5C 221.622,205.293 220.622,204.626 218.5,204.5C 215.092,203.422 213.092,201.089 212.5,197.5C 212.926,195.861 212.926,194.528 212.5,193.5C 212.577,192.25 213.244,191.417 214.5,191C 216.066,190.235 217.399,190.402 218.5,191.5 Z"/></g>
<g><path style="opacity:0.98" fill="#49d5d5" d="M 218.5,191.5 C 219.833,191.5 220.5,192.167 220.5,193.5C 220.565,193.938 220.399,194.272 220,194.5C 219.487,193.473 218.987,192.473 218.5,191.5 Z"/></g>
<g><path style="opacity:0.431" fill="#bebbb6" d="M 8.5,193.5 C 11.2406,193.707 13.5739,194.707 15.5,196.5C 12.7594,196.293 10.4261,195.293 8.5,193.5 Z"/></g>
<g><path style="opacity:0.145" fill="#4c6969" d="M 53.5,196.5 C 52.5,196.167 51.8333,195.5 51.5,194.5C 51.81,193.262 52.31,193.262 53,194.5C 53.4643,195.094 53.631,195.761 53.5,196.5 Z"/></g>
<g><path style="opacity:0.412" fill="#667676" d="M 15.5,196.5 C 17.5529,196.402 19.2196,197.069 20.5,198.5C 18.4471,198.598 16.7804,197.931 15.5,196.5 Z"/></g>
<g><path style="opacity:0.027" fill="#83b9b9" d="M 212.5,193.5 C 212.926,194.528 212.926,195.861 212.5,197.5C 211.167,196.167 211.167,194.833 212.5,193.5 Z"/></g>
<g><path style="opacity:0.886" fill="#a4a6a1" d="M 53.5,196.5 C 56.2423,198.181 57.909,200.181 58.5,202.5C 56.086,201.089 54.4194,199.089 53.5,196.5 Z"/></g>
<g><path style="opacity:0.106" fill="#60b8b7" d="M 223.5,197.5 C 225.153,197.66 226.486,198.326 227.5,199.5C 225.62,199.771 224.287,199.104 223.5,197.5 Z"/></g>
<g><path style="opacity:0.847" fill="#809b9a" d="M 234.5,201.5 C 236.117,202.038 237.784,202.371 239.5,202.5C 237.545,203.93 235.879,203.597 234.5,201.5 Z"/></g>
<g><path style="opacity:0.627" fill="#718887" d="M 240.5,202.5 C 241.995,202.989 243.329,203.655 244.5,204.5C 242.517,204.843 241.183,204.176 240.5,202.5 Z"/></g>
<g><path style="opacity:0.533" fill="#4a7b7b" d="M 12.5,204.5 C 14.1788,204.285 15.1788,204.952 15.5,206.5C 14.2905,206.068 13.2905,205.401 12.5,204.5 Z"/></g>
<g><path style="opacity:0.984" fill="#8c8f86" d="M 28.5,203.5 C 30.3885,204.604 32.0552,205.937 33.5,207.5C 33.5654,207.938 33.3988,208.272 33,208.5C 32.0975,207.299 30.9308,206.465 29.5,206C 28.7476,205.329 28.4142,204.496 28.5,203.5 Z"/></g>
<g><path style="opacity:0.302" fill="#a3c4c3" d="M 63.5,207.5 C 62.1667,206.833 61.1667,205.833 60.5,204.5C 60.4346,204.062 60.6012,203.728 61,203.5C 62.4813,204.471 63.3146,205.804 63.5,207.5 Z"/></g>
<g><path style="opacity:0.937" fill="#859d9a" d="M 218.5,204.5 C 220.622,204.626 221.622,205.293 221.5,206.5C 219.973,206.573 218.973,205.906 218.5,204.5 Z"/></g>
<g><path style="opacity:0.992" fill="#8e8e8d" d="M 73.5,204.5 C 75.0269,204.427 76.0269,205.094 76.5,206.5C 75.2418,207.016 74.2418,206.35 73.5,204.5 Z"/></g>
<g><path style="opacity:0.078" fill="#9f7f78" d="M 25.5,212.5 C 21.9754,211.241 18.9754,209.241 16.5,206.5C 16.4346,206.062 16.6012,205.728 17,205.5C 20.0228,207.698 22.8562,210.031 25.5,212.5 Z"/></g>
<g><path style="opacity:0.741" fill="#8ca9a8" d="M 63.5,207.5 C 65.4044,207.738 66.7377,208.738 67.5,210.5C 65.5956,210.262 64.2623,209.262 63.5,207.5 Z"/></g>
<g><path style="opacity:0.145" fill="#788685" d="M 34.5,208.5 C 36.4044,208.738 37.7377,209.738 38.5,211.5C 36.5956,211.262 35.2623,210.262 34.5,208.5 Z"/></g>
<g><path style="opacity:0.922" fill="#559e9d" d="M 80.5,208.5 C 83.0316,209.596 85.3649,210.929 87.5,212.5C 84.3183,212.416 81.985,211.083 80.5,208.5 Z"/></g>
<g><path style="opacity:0.043" fill="#79a4a3" d="M 38.5,211.5 C 40.0269,211.427 41.0269,212.094 41.5,213.5C 39.9731,213.573 38.9731,212.906 38.5,211.5 Z"/></g>
<g><path style="opacity:0.235" fill="#8ba3a2" d="M 67.5,210.5 C 71.0246,211.759 74.0246,213.759 76.5,216.5C 72.9505,215.277 69.9505,213.277 67.5,210.5 Z"/></g>
<g><path style="opacity:0.42" fill="#a5a899" d="M 140.5,216.5 C 142.179,216.285 143.179,216.952 143.5,218.5C 142.29,218.068 141.29,217.401 140.5,216.5 Z"/></g>
<g><path style="opacity:0.027" fill="#74a2a2" d="M 29.5,215.5 C 31.7946,216.136 33.4613,217.469 34.5,219.5C 32.246,218.876 30.5794,217.543 29.5,215.5 Z"/></g>
<g><path style="opacity:0.882" fill="#a8cdc6" d="M 76.5,216.5 C 78.632,216.554 79.9653,217.554 80.5,219.5C 78.7697,218.974 77.4363,217.974 76.5,216.5 Z"/></g>
<g><path style="opacity:0.231" fill="#a16e69" d="M 104.5,217.5 C 107.237,217.401 109.904,217.735 112.5,218.5C 112.265,219.097 111.765,219.43 111,219.5C 108.654,219.01 106.487,218.343 104.5,217.5 Z"/></g>
<g><path style="opacity:0.796" fill="#75c2c1" d="M 85.5,221.5 C 86.9621,220.529 88.2954,220.862 89.5,222.5C 88.0413,222.567 86.7079,222.234 85.5,221.5 Z"/></g>
<g><path style="opacity:0.851" fill="#7f8684" d="M 39.5,223.5 C 39.8966,222.475 40.5632,222.308 41.5,223C 45.0117,225.061 48.0117,227.561 50.5,230.5C 46.6641,228.416 42.9974,226.083 39.5,223.5 Z"/></g>
<g><path style="opacity:0.988" fill="#96bdbc" d="M 51.5,220.5 C 54.7598,221.774 57.7598,223.44 60.5,225.5C 57.0663,225.272 54.0663,223.605 51.5,220.5 Z"/></g>
<g><path style="opacity:0.278" fill="#cfc6c4" d="M 94.5,224.5 C 95.779,223.285 96.779,223.618 97.5,225.5C 96.391,225.443 95.391,225.11 94.5,224.5 Z"/></g>
<g><path style="opacity:0.733" fill="#906159" d="M 100.5,225.5 C 105.694,225.741 110.694,226.407 115.5,227.5C 110.234,227.811 105.234,227.145 100.5,225.5 Z"/></g>
<g><path style="opacity:0.329" fill="#82938d" d="M 143.5,218.5 C 144.942,220.817 144.608,222.984 142.5,225C 138.914,226.108 135.247,226.608 131.5,226.5C 134.675,225.571 138.009,224.738 141.5,224C 143.155,222.556 143.822,220.722 143.5,218.5 Z"/></g>
<g><path style="opacity:0.11" fill="#528c8c" d="M 62.5,226.5 C 64.3684,227.263 66.0351,228.263 67.5,229.5C 64.9664,229.741 63.2998,228.741 62.5,226.5 Z"/></g>
<g><path style="opacity:0.11" fill="#728e8d" d="M 51.5,230.5 C 54.3311,231.079 56.6644,232.412 58.5,234.5C 55.6689,233.921 53.3356,232.588 51.5,230.5 Z"/></g>
<g><path style="opacity:0.937" fill="#799e9d" d="M 73.5,232.5 C 74.9587,232.433 76.2921,232.766 77.5,233.5C 76.0379,234.471 74.7046,234.138 73.5,232.5 Z"/></g>
<g><path style="opacity:0.424" fill="#aea5a4" d="M 172.5,233.5 C 176.044,233.132 179.044,234.132 181.5,236.5C 178.33,235.735 175.33,234.735 172.5,233.5 Z"/></g>
<g><path style="opacity:0.435" fill="#6da09f" d="M 58.5,234.5 C 60.632,234.554 61.9653,235.554 62.5,237.5C 60.7697,236.974 59.4363,235.974 58.5,234.5 Z"/></g>
<g><path style="opacity:0.843" fill="#7fa1a0" d="M 161.5,235.5 C 160.866,236.947 159.699,237.613 158,237.5C 156.93,237.472 156.097,237.139 155.5,236.5C 157.565,236.483 159.565,236.15 161.5,235.5 Z"/></g>
<g><path style="opacity:0.906" fill="#80594d" d="M 70.5,240.5 C 67.7594,240.293 65.4261,239.293 63.5,237.5C 63.4346,237.062 63.6012,236.728 64,236.5C 66.3143,237.733 68.4809,239.067 70.5,240.5 Z"/></g>
<g><path style="opacity:0.922" fill="#4c7977" d="M 183.5,237.5 C 185.553,237.402 187.22,238.069 188.5,239.5C 186.447,239.598 184.78,238.931 183.5,237.5 Z"/></g>
<g><path style="opacity:0.992" fill="#849490" d="M 188.5,239.5 C 190.786,239.595 192.786,240.262 194.5,241.5C 192.102,241.741 190.102,241.074 188.5,239.5 Z"/></g>
<g><path style="opacity:0.631" fill="#80857d" d="M 175.5,243.5 C 173.167,243.5 170.833,243.5 168.5,243.5C 171.067,241.691 173.733,241.525 176.5,243C 176.272,243.399 175.938,243.565 175.5,243.5 Z"/></g>
<g><path style="opacity:0.988" fill="#6f9d9c" d="M 205.5,243.5 C 207.626,244.048 209.626,244.715 211.5,245.5C 208.918,245.975 206.918,245.308 205.5,243.5 Z"/></g>
<g><path style="opacity:0.176" fill="#9f8b82" d="M 216.5,245.5 C 220.135,246.114 223.802,246.448 227.5,246.5C 223.71,247.902 220.044,247.569 216.5,245.5 Z"/></g>
<g><path style="opacity:0.992" fill="#9c8382" d="M 89.5,246.5 C 91.5273,246.338 93.5273,246.505 95.5,247C 96.056,247.383 96.3893,247.883 96.5,248.5C 93.9902,248.073 91.6568,247.407 89.5,246.5 Z"/></g>
<g><path style="opacity:0.459" fill="#9bb1af" d="M 181.5,246.5 C 182.962,245.529 184.295,245.862 185.5,247.5C 184.041,247.567 182.708,247.234 181.5,246.5 Z"/></g>
<g><path style="opacity:0.859" fill="#81a6a4" d="M 242.5,245.5 C 245.804,246.144 247.138,248.144 246.5,251.5C 245.563,249.231 244.23,247.231 242.5,245.5 Z"/></g>
<g><path style="opacity:0.235" fill="#ad8b7e" d="M 186.5,248.5 C 186.56,247.957 186.893,247.624 187.5,247.5C 190.016,248.33 192.35,249.33 194.5,250.5C 191.659,250.44 188.993,249.774 186.5,248.5 Z"/></g>
</svg>
